<?xml version="1.0" encoding="UTF-8" standalone="no"?><!DOCTYPE svg PUBLIC "-//W3C//DTD SVG 1.1//EN" "http://www.w3.org/Graphics/SVG/1.1/DTD/svg11.dtd"><svg width="100%" height="100%" viewBox="0 0 2553 409" version="1.1" xmlns="http://www.w3.org/2000/svg" xmlns:xlink="http://www.w3.org/1999/xlink" xml:space="preserve" xmlns:serif="http://www.serif.com/" style="fill-rule:evenodd;clip-rule:evenodd;stroke-linejoin:round;stroke-miterlimit:2;"><path d="M0,401.074c3.54,-37.109 7.426,-101.611 11.657,-193.506c4.231,-91.894 6.445,-160.693 6.64,-206.396c17.355,0.39 32.371,0.586 45.048,0.586c12.674,-0 26.227,-0.196 40.659,-0.586c-3.302,27.539 -5.924,62.305 -7.864,104.297c19.137,-3.711 34.368,-6.201 45.693,-7.471c11.326,-1.269 22.553,-1.904 33.683,-1.904c30.658,-0 56.483,4.834 77.476,14.502c20.993,9.668 37.836,25.683 50.528,48.047c12.692,22.363 19.039,49.462 19.039,81.298c-0,22.266 -3.172,43.897 -9.515,64.893c-6.343,20.996 -15.808,39.648 -28.395,55.957c-12.587,16.309 -27.857,28.272 -45.811,35.889c-17.953,7.617 -37.468,11.425 -58.543,11.425c-10.147,0 -19.563,-0.927 -28.249,-2.783c-8.685,-1.855 -16.687,-4.541 -24.005,-8.056c-7.318,-3.516 -13.855,-7.618 -19.611,-12.305c-5.755,-4.688 -10.536,-9.375 -14.341,-14.063c-3.806,-4.687 -8.246,-11.23 -13.321,-19.628l-1.291,49.804c-16.031,-0.39 -28.642,-0.586 -37.834,-0.586c-7.038,0 -20.919,0.196 -41.643,0.586Zm90.715,-235.84l-2.353,50.098c-0.589,10.742 -0.883,21.191 -0.883,31.348c-0,24.218 2.482,43.31 7.447,57.275c4.966,13.965 13.387,24.756 25.264,32.373c11.878,7.617 25.216,11.426 40.014,11.426c16.162,-0 30.181,-4.346 42.059,-13.037c11.877,-8.692 20.98,-21.436 27.308,-38.233c6.328,-16.797 9.492,-34.472 9.492,-53.027c-0,-26.758 -7.107,-48.242 -21.319,-64.453c-14.212,-16.211 -35.139,-24.317 -62.782,-24.317c-8.957,0 -18.302,0.733 -28.036,2.198c-9.733,1.465 -21.804,4.248 -36.211,8.349Z" style="fill:#242424;fill-rule:nonzero;"/><path d="M373.242,401.074c2.915,-33.008 6.462,-92.334 10.643,-177.978c4.181,-85.645 6.757,-159.619 7.727,-221.924c20.334,0.39 34.802,0.586 43.405,0.586c11.533,-0 25.609,-0.196 42.229,-0.586l-6.999,106.933l-10.204,238.477l-1.167,54.492c-16.031,-0.39 -29.619,-0.586 -40.764,-0.586c-3.714,0 -18.67,0.196 -44.87,0.586Z" style="fill:#242424;fill-rule:nonzero;"/><path d="M554.59,168.457c2.734,-14.062 4.443,-23.926 5.127,-29.59c0.683,-5.664 1.904,-14.258 3.662,-25.781c26.562,-6.25 50,-10.645 70.312,-13.184c20.313,-2.539 39.942,-3.808 58.887,-3.808c21.485,-0 41.211,2.49 59.18,7.47c17.969,4.981 32.031,12.94 42.187,23.877c10.157,10.938 15.235,26.661 15.235,47.168c-0,11.133 -1.552,39.502 -4.656,85.108c-3.103,45.605 -4.947,92.724 -5.53,141.357c-14.856,-0.39 -28.538,-0.586 -41.047,-0.586c-11.926,0 -25.904,0.196 -41.931,0.586c2.569,-23.633 4.643,-50.976 6.221,-82.031l3.854,-72.949c-7.428,4.883 -13.097,8.301 -17.006,10.254c-3.909,1.953 -8.308,3.759 -13.195,5.42c-4.887,1.66 -13.489,4.199 -25.804,7.617c-12.315,3.418 -22.187,6.396 -29.615,8.935c-7.428,2.539 -14.124,5.42 -20.087,8.643c-5.963,3.223 -10.997,6.836 -15.101,10.84c-4.105,4.004 -7.086,8.203 -8.943,12.597c-1.857,4.395 -2.785,9.131 -2.785,14.209c-0,8.204 2.392,15.284 7.177,21.241c4.786,5.957 10.791,10.107 18.018,12.451c7.227,2.344 15.723,3.515 25.488,3.515c6.25,0 12.842,-0.488 19.776,-1.464c6.933,-0.977 16.259,-3.418 27.978,-7.325c-4.101,11.133 -8.887,27.735 -14.355,49.805c-13.867,2.344 -24.903,3.809 -33.106,4.395c-8.203,0.585 -15.82,0.878 -22.851,0.878c-24.61,0 -44.825,-3.32 -60.645,-9.96c-15.82,-6.641 -27.49,-17.188 -35.01,-31.641c-7.519,-14.453 -11.279,-29.004 -11.279,-43.652c0,-8.399 1.466,-16.7 4.397,-24.903c2.931,-8.203 7.23,-15.722 12.897,-22.558c5.668,-6.836 12.996,-13.428 21.987,-19.776c8.99,-6.347 21.987,-12.5 38.99,-18.457c17.003,-5.957 39.477,-11.963 67.422,-18.017c7.428,-1.563 15.148,-3.467 23.16,-5.713c8.012,-2.246 14.413,-4.444 19.201,-6.592c4.788,-2.149 8.941,-4.932 12.458,-8.35c3.517,-3.418 6.107,-6.982 7.768,-10.693c1.662,-3.711 2.493,-7.52 2.493,-11.426c-0,-7.617 -2.492,-14.062 -7.475,-19.336c-4.984,-5.273 -11.434,-8.935 -19.35,-10.986c-7.916,-2.051 -16.664,-3.076 -26.244,-3.076c-35.571,-0 -74.858,8.496 -117.86,25.488Z" style="fill:#242424;fill-rule:nonzero;"/><path d="M1105.66,333.398c-0.976,8.008 -2.441,17.09 -4.394,27.247c-1.954,10.156 -4.004,22.753 -6.153,37.792c-27.929,6.446 -55.469,9.668 -82.617,9.668c-15.82,0 -31.055,-1.464 -45.703,-4.394c-14.649,-2.93 -28.272,-8.154 -40.869,-15.674c-12.598,-7.519 -23.682,-17.432 -33.252,-29.736c-9.571,-12.305 -16.748,-27.197 -21.533,-44.678c-4.786,-17.48 -7.178,-35.498 -7.178,-54.053c-0,-24.609 3.955,-48.242 11.865,-70.898c7.91,-22.656 19.483,-41.162 34.717,-55.518c15.234,-14.355 32.178,-24.121 50.83,-29.297c18.652,-5.175 39.404,-7.763 62.256,-7.763c12.695,-0 25.781,0.732 39.258,2.197c13.476,1.465 29.394,4.443 47.754,8.936l4.394,64.16c-29.05,-9.961 -54.396,-14.942 -76.039,-14.942c-13.257,0 -25.784,2.246 -37.58,6.739c-11.797,4.492 -21.935,11.572 -30.416,21.24c-8.481,9.668 -14.525,20.849 -18.132,33.545c-3.607,12.695 -5.411,25.683 -5.411,38.965c-0,18.554 2.875,34.619 8.626,48.193c5.752,13.574 15.645,24.072 29.682,31.494c14.036,7.422 30.022,11.133 47.958,11.133c8.773,-0 19.448,-1.123 32.022,-3.369c12.575,-2.246 25.88,-5.908 39.915,-10.987Z" style="fill:#242424;fill-rule:nonzero;"/><path d="M1165.43,401.074l5.832,-76.172l6.71,-146.191l3.209,-125.098c0.388,-22.656 0.582,-40.136 0.582,-52.441c20.453,0.39 34.965,0.586 43.538,0.586c10.128,-0 23.472,-0.196 40.031,-0.586l-6.125,95.215l-6.999,151.758l-2.916,113.378l-0.293,39.551c-17.337,-0.39 -30.974,-0.586 -40.91,-0.586c-11.298,0 -25.518,0.196 -42.659,0.586Zm93.164,-166.845l59.71,-72.574c5.1,-6.244 11.18,-13.951 18.24,-23.12c7.06,-9.169 15.983,-20.972 26.768,-35.41c20.285,0.391 35.109,0.586 44.472,0.586c12.872,-0 29.158,-0.195 48.857,-0.586l-96.547,110.619l-17.313,21.07c14.279,22.678 53.893,78.098 118.84,166.26c-17.599,-0.39 -32.658,-0.586 -45.177,-0.586c-12.515,0 -28.062,0.196 -46.641,0.586c-11.347,-18.57 -20.59,-33.475 -27.729,-44.716c-7.14,-11.242 -13.741,-21.064 -19.805,-29.469l-49.883,-71.255c-1.37,-1.954 -5.968,-9.089 -13.792,-21.405Z" style="fill:#242424;fill-rule:nonzero;"/><path d="M1500.59,401.074c3.723,-41.406 6.271,-75.293 7.642,-101.66c1.372,-26.367 3.135,-71.387 5.29,-135.059c2.154,-63.671 3.232,-107.421 3.232,-131.25c-0,-7.226 -0.098,-17.871 -0.293,-31.933c24.606,0.39 45.013,0.586 61.221,0.586c16.403,-0 36.614,-0.293 60.633,-0.879c24.019,-0.586 43.841,-0.879 59.466,-0.879c21.869,0 38.32,0.928 49.354,2.783c11.033,1.856 20.846,4.639 29.438,8.35c8.593,3.711 15.818,8.252 21.678,13.623c5.859,5.371 10.888,11.719 15.085,19.043c4.198,7.324 7.322,15.234 9.373,23.73c2.051,8.496 3.076,17.139 3.076,25.928c0,10.938 -1.318,21.338 -3.955,31.201c-2.637,9.863 -6.445,18.75 -11.426,26.66c-4.98,7.911 -10.791,14.649 -17.431,20.215c-6.641,5.567 -12.989,9.912 -19.043,13.037c-6.055,3.125 -14.16,6.446 -24.317,9.961c9.18,1.953 16.504,3.858 21.973,5.713c5.469,1.856 11.328,4.688 17.578,8.496c6.25,3.809 12.158,8.692 17.725,14.649c5.566,5.957 10.01,12.256 13.33,18.896c3.32,6.641 5.908,14.014 7.764,22.119c1.855,8.106 2.783,16.553 2.783,25.342c-0,18.75 -4.053,35.938 -12.158,51.563c-8.106,15.625 -19.288,27.978 -33.545,37.06c-14.258,9.082 -30.225,15.137 -47.901,18.164c-17.676,3.028 -55.224,4.541 -112.646,4.541l-70.899,-0.293l-53.027,0.293Zm95.915,-234.082l47.035,0c20.06,0 33.546,-0.488 40.46,-1.465c6.914,-0.976 14.168,-2.881 21.764,-5.713c7.596,-2.832 14.024,-7.226 19.283,-13.183c5.26,-5.957 9.107,-12.5 11.541,-19.629c2.433,-7.129 3.65,-14.404 3.65,-21.826c0,-7.227 -1.315,-14.063 -3.946,-20.508c-2.63,-6.445 -6.675,-11.768 -12.133,-15.967c-5.458,-4.199 -12.036,-7.226 -19.734,-9.082c-7.698,-1.855 -18.953,-2.783 -33.767,-2.783l-70.166,-0l-3.987,110.156Zm-7.159,176.953l66.508,0c13.48,0 23.979,-0.538 31.499,-1.616c7.519,-1.077 14.698,-2.986 21.535,-5.726c6.838,-2.741 12.21,-5.677 16.116,-8.81c3.906,-3.133 7.373,-7.146 10.4,-12.041c3.028,-4.895 5.42,-10.427 7.178,-16.594c1.758,-6.168 2.637,-12.58 2.637,-19.236c-0,-9.005 -1.563,-16.934 -4.69,-23.787c-3.126,-6.853 -7.767,-12.776 -13.921,-17.768c-6.153,-4.993 -13.333,-8.615 -21.537,-10.868c-8.205,-2.252 -20.709,-3.378 -37.512,-3.378l-73.851,0l-4.362,119.824Z" style="fill:#242424;fill-rule:nonzero;"/><path d="M2047.27,96.094c22.461,-0 43.994,3.369 64.599,10.107c20.606,6.738 38.086,16.699 52.442,29.883c14.355,13.184 25.146,29.297 32.373,48.34c7.226,19.043 10.84,39.111 10.84,60.205c-0,22.266 -3.809,43.75 -11.426,64.453c-7.617,20.703 -18.653,38.623 -33.106,53.76c-14.453,15.137 -32.47,26.465 -54.052,33.984c-21.582,7.52 -44.581,11.279 -68.995,11.279c-22.656,0 -44.189,-3.369 -64.599,-10.107c-20.41,-6.738 -37.842,-16.846 -52.295,-30.322c-14.453,-13.477 -25.44,-29.883 -32.959,-49.219c-7.52,-19.336 -11.279,-39.551 -11.279,-60.644c-0,-21.485 3.418,-41.993 10.254,-61.524c6.835,-19.531 17.529,-36.914 32.08,-52.148c14.55,-15.235 33.154,-27.051 55.81,-35.45c22.656,-8.398 46.094,-12.597 70.313,-12.597Zm-0.014,60.351c-16.931,0 -32.062,4.151 -45.392,12.451c-13.33,8.301 -23.255,20.655 -29.775,37.061c-6.52,16.406 -9.78,34.277 -9.78,53.613c-0,16.993 2.675,32.129 8.027,45.41c5.351,13.282 14.108,24.024 26.271,32.227c12.162,8.203 26.613,12.305 43.352,12.305c17.124,-0 32.156,-4.248 45.097,-12.744c12.941,-8.497 22.671,-20.997 29.191,-37.5c6.52,-16.504 9.78,-34.717 9.78,-54.639c0,-16.211 -2.529,-30.957 -7.589,-44.238c-5.06,-13.282 -13.575,-23.926 -25.543,-31.934c-11.969,-8.008 -26.516,-12.012 -43.639,-12.012Z" style="fill:#242424;fill-rule:nonzero;"/><path d="M2221.58,401.074c41.058,-49.698 82.742,-101.404 125.052,-155.118l-26.77,-40.507c-8.71,-13.205 -20.288,-30.109 -34.735,-50.711l-36.008,-51.613c21.463,0.391 38.632,0.586 51.508,0.586c16.977,-0 32.098,-0.195 45.364,-0.586c9.061,13.934 19.429,29.199 31.105,45.795l22.046,32.405l62.915,-78.2c13.876,0.391 28.728,0.586 44.554,0.586c14.853,-0 30.194,-0.195 46.024,-0.586l-48.944,60.59c-11.087,13.989 -31.795,40.391 -62.123,79.206l45.904,68.903l61.94,89.25c-16.824,-0.39 -32.378,-0.586 -46.66,-0.586c-17.218,0 -33.946,0.196 -50.184,0.586c-12.165,-19.708 -24.28,-37.827 -36.347,-54.357c-12.067,-16.53 -20.991,-29.404 -26.774,-38.624c-7.843,10.33 -18.316,23.443 -31.419,39.338c-13.103,15.895 -27.209,33.776 -42.318,53.643c-16.422,-0.39 -31.279,-0.586 -44.572,-0.586c-14.856,0 -31.376,0.196 -49.558,0.586Z" style="fill:#242424;fill-rule:nonzero;"/></svg>