<?xml version="1.0" encoding="UTF-8" standalone="no"?><!DOCTYPE svg PUBLIC "-//W3C//DTD SVG 1.1//EN" "http://www.w3.org/Graphics/SVG/1.1/DTD/svg11.dtd"><svg width="100%" height="100%" viewBox="0 0 3207 669" version="1.1" xmlns="http://www.w3.org/2000/svg" xmlns:xlink="http://www.w3.org/1999/xlink" xml:space="preserve" xmlns:serif="http://www.serif.com/" style="fill-rule:evenodd;clip-rule:evenodd;stroke-linejoin:round;stroke-miterlimit:1.5;"><path d="M289.341,0l289.341,167.051l-0,334.102l-289.341,167.051l-289.341,-167.051l0,-334.102l289.341,-167.051Z" style="fill:#242424;"/><path d="M67.132,205.81l169.218,97.698" style="fill:none;stroke:#f8f8f8;stroke-width:2.08px;"/><path d="M511.55,205.81l-169.219,97.698" style="fill:none;stroke:#f8f8f8;stroke-width:2.08px;"/><path d="M654.109,531.124c3.54,-37.11 7.425,-101.612 11.656,-193.506c4.232,-91.895 6.445,-160.694 6.64,-206.397c17.356,0.391 32.372,0.586 45.049,0.586c12.674,0 26.227,-0.195 40.658,-0.586c-3.302,27.539 -5.923,62.305 -7.864,104.297c19.138,-3.711 34.369,-6.201 45.694,-7.471c11.325,-1.269 22.553,-1.904 33.682,-1.904c30.658,0 56.484,4.834 77.477,14.502c20.993,9.668 37.835,25.684 50.528,48.047c12.692,22.363 19.038,49.463 19.038,81.299c0,22.265 -3.171,43.896 -9.514,64.892c-6.344,20.996 -15.809,39.649 -28.396,55.957c-12.587,16.309 -27.857,28.272 -45.81,35.889c-17.954,7.617 -37.468,11.426 -58.544,11.426c-10.147,-0 -19.563,-0.928 -28.248,-2.783c-8.686,-1.856 -16.687,-4.541 -24.005,-8.057c-7.318,-3.516 -13.855,-7.617 -19.611,-12.305c-5.756,-4.687 -10.536,-9.375 -14.342,-14.062c-3.805,-4.688 -8.246,-11.231 -13.321,-19.629l-1.291,49.805c-16.03,-0.391 -28.642,-0.586 -37.834,-0.586c-7.037,-0 -20.918,0.195 -41.642,0.586Zm90.715,-235.84l-2.353,50.097c-0.589,10.743 -0.884,21.192 -0.884,31.348c0,24.219 2.483,43.311 7.448,57.275c4.965,13.965 13.387,24.756 25.264,32.373c11.877,7.618 25.215,11.426 40.013,11.426c16.162,0 30.182,-4.346 42.059,-13.037c11.878,-8.691 20.98,-21.435 27.308,-38.232c6.328,-16.797 9.492,-34.473 9.492,-53.028c0,-26.757 -7.106,-48.242 -21.318,-64.453c-14.212,-16.211 -35.139,-24.316 -62.782,-24.316c-8.957,-0 -18.302,0.732 -28.036,2.197c-9.734,1.465 -21.804,4.248 -36.211,8.35Z" style="fill:#242424;fill-rule:nonzero;"/><path d="M1027.35,531.124c2.914,-33.008 6.462,-92.334 10.643,-177.979c4.181,-85.645 6.756,-159.619 7.727,-221.924c20.334,0.391 34.802,0.586 43.405,0.586c11.533,0 25.609,-0.195 42.229,-0.586l-7,106.934l-10.203,238.476l-1.167,54.493c-16.031,-0.391 -29.619,-0.586 -40.764,-0.586c-3.714,-0 -18.671,0.195 -44.87,0.586Z" style="fill:#242424;fill-rule:nonzero;"/><path d="M1208.7,298.506c2.735,-14.062 4.444,-23.925 5.127,-29.59c0.684,-5.664 1.905,-14.257 3.662,-25.781c26.563,-6.25 50,-10.644 70.313,-13.183c20.312,-2.539 39.941,-3.809 58.887,-3.809c21.484,0 41.211,2.49 59.179,7.471c17.969,4.98 32.032,12.939 42.188,23.877c10.156,10.937 15.234,26.66 15.234,47.168c0,11.132 -1.552,39.502 -4.655,85.107c-3.104,45.606 -4.947,92.725 -5.53,141.358c-14.856,-0.391 -28.539,-0.586 -41.048,-0.586c-11.926,-0 -25.903,0.195 -41.931,0.586c2.57,-23.633 4.643,-50.977 6.221,-82.032l3.855,-72.949c-7.428,4.883 -13.097,8.301 -17.006,10.254c-3.91,1.953 -8.308,3.76 -13.195,5.42c-4.888,1.66 -13.489,4.199 -25.805,7.617c-12.315,3.418 -22.187,6.397 -29.615,8.936c-7.428,2.539 -14.123,5.42 -20.086,8.642c-5.963,3.223 -10.997,6.836 -15.102,10.84c-4.104,4.004 -7.085,8.203 -8.942,12.598c-1.857,4.394 -2.786,9.131 -2.786,14.209c0,8.203 2.393,15.283 7.178,21.24c4.785,5.957 10.791,10.107 18.018,12.451c7.226,2.344 15.722,3.516 25.488,3.516c6.25,-0 12.842,-0.489 19.775,-1.465c6.934,-0.977 16.26,-3.418 27.979,-7.324c-4.102,11.132 -8.887,27.734 -14.356,49.804c-13.867,2.344 -24.902,3.809 -33.105,4.395c-8.203,0.586 -15.821,0.879 -22.852,0.879c-24.609,-0 -44.824,-3.321 -60.644,-9.961c-15.821,-6.641 -27.491,-17.188 -35.01,-31.641c-7.52,-14.453 -11.279,-29.004 -11.279,-43.652c-0,-8.399 1.465,-16.699 4.396,-24.902c2.932,-8.204 7.231,-15.723 12.898,-22.559c5.667,-6.836 12.996,-13.428 21.986,-19.775c8.991,-6.348 21.987,-12.5 38.99,-18.458c17.003,-5.957 39.477,-11.962 67.422,-18.017c7.428,-1.563 15.148,-3.467 23.161,-5.713c8.012,-2.246 14.412,-4.443 19.201,-6.592c4.788,-2.148 8.94,-4.931 12.458,-8.349c3.517,-3.418 6.106,-6.983 7.768,-10.694c1.662,-3.711 2.492,-7.519 2.492,-11.426c0,-7.617 -2.491,-14.062 -7.475,-19.335c-4.983,-5.274 -11.433,-8.936 -19.35,-10.987c-7.916,-2.051 -16.664,-3.076 -26.243,-3.076c-35.571,0 -74.858,8.496 -117.861,25.488Z" style="fill:#242424;fill-rule:nonzero;"/><path d="M1759.77,463.448c-0.977,8.008 -2.442,17.09 -4.395,27.246c-1.953,10.156 -4.004,22.754 -6.152,37.793c-27.93,6.445 -55.469,9.668 -82.617,9.668c-15.821,-0 -31.055,-1.465 -45.704,-4.395c-14.648,-2.929 -28.271,-8.154 -40.869,-15.674c-12.597,-7.519 -23.681,-17.431 -33.252,-29.736c-9.57,-12.305 -16.748,-27.197 -21.533,-44.678c-4.785,-17.48 -7.178,-35.498 -7.178,-54.052c0,-24.61 3.955,-48.243 11.866,-70.899c7.91,-22.656 19.482,-41.162 34.716,-55.517c15.235,-14.356 32.178,-24.122 50.83,-29.297c18.653,-5.176 39.405,-7.764 62.256,-7.764c12.696,0 25.782,0.732 39.258,2.197c13.477,1.465 29.395,4.444 47.754,8.936l4.395,64.16c-29.05,-9.961 -54.396,-14.941 -76.04,-14.941c-13.256,-0 -25.783,2.246 -37.58,6.738c-11.796,4.492 -21.935,11.572 -30.416,21.24c-8.481,9.668 -14.525,20.85 -18.132,33.545c-3.607,12.695 -5.411,25.684 -5.411,38.965c0,18.555 2.876,34.619 8.627,48.193c5.751,13.574 15.645,24.073 29.681,31.494c14.037,7.422 30.023,11.133 47.958,11.133c8.774,0 19.448,-1.123 32.023,-3.369c12.575,-2.246 25.88,-5.908 39.915,-10.986Z" style="fill:#242424;fill-rule:nonzero;"/><path d="M1819.54,531.124l5.832,-76.172l6.711,-146.192l3.209,-125.097c0.387,-22.657 0.581,-40.137 0.581,-52.442c20.453,0.391 34.966,0.586 43.538,0.586c10.129,0 23.473,-0.195 40.032,-0.586l-6.125,95.215l-7,151.758l-2.915,113.379l-0.293,39.551c-17.337,-0.391 -30.974,-0.586 -40.911,-0.586c-11.297,-0 -25.517,0.195 -42.659,0.586Zm93.164,-166.846l59.711,-72.574c5.099,-6.244 11.179,-13.95 18.24,-23.119c7.06,-9.169 15.982,-20.973 26.767,-35.411c20.285,0.391 35.109,0.586 44.472,0.586c12.872,0 29.158,-0.195 48.857,-0.586l-96.547,110.619l-17.312,21.071c14.279,22.677 53.892,78.097 118.84,166.26c-17.6,-0.391 -32.659,-0.586 -45.177,-0.586c-12.515,-0 -28.062,0.195 -46.642,0.586c-11.346,-18.57 -20.589,-33.476 -27.729,-44.717c-7.139,-11.241 -13.741,-21.064 -19.805,-29.469l-49.882,-71.255c-1.371,-1.953 -5.968,-9.088 -13.793,-21.405Z" style="fill:#242424;fill-rule:nonzero;"/><path d="M2154.69,531.124c3.724,-41.407 6.271,-75.293 7.643,-101.661c1.372,-26.367 3.135,-71.386 5.289,-135.058c2.155,-63.672 3.232,-107.422 3.232,-131.25c0,-7.227 -0.098,-17.871 -0.293,-31.934c24.606,0.391 45.014,0.586 61.221,0.586c16.404,0 36.615,-0.293 60.634,-0.879c24.018,-0.586 43.84,-0.879 59.465,-0.879c21.869,0 38.32,0.928 49.354,2.783c11.034,1.856 20.847,4.639 29.439,8.35c8.592,3.711 15.818,8.252 21.677,13.623c5.86,5.371 10.888,11.719 15.086,19.043c4.198,7.324 7.322,15.234 9.373,23.731c2.05,8.496 3.076,17.138 3.076,25.927c-0,10.938 -1.319,21.338 -3.955,31.201c-2.637,9.864 -6.446,18.75 -11.426,26.661c-4.981,7.91 -10.791,14.648 -17.432,20.214c-6.64,5.567 -12.988,9.913 -19.043,13.038c-6.054,3.125 -14.16,6.445 -24.316,9.961c9.18,1.953 16.504,3.857 21.973,5.712c5.468,1.856 11.328,4.688 17.578,8.497c6.25,3.808 12.158,8.691 17.724,14.648c5.567,5.957 10.01,12.256 13.33,18.896c3.321,6.641 5.909,14.014 7.764,22.12c1.856,8.105 2.783,16.552 2.783,25.341c0,18.75 -4.052,35.938 -12.158,51.563c-8.105,15.625 -19.287,27.978 -33.545,37.06c-14.258,9.082 -30.224,15.137 -47.9,18.164c-17.676,3.028 -55.225,4.542 -112.647,4.542l-70.898,-0.293l-53.028,0.293Zm95.916,-234.083l47.035,0c20.059,0 33.546,-0.488 40.459,-1.464c6.914,-0.977 14.169,-2.881 21.765,-5.713c7.596,-2.832 14.023,-7.227 19.283,-13.184c5.26,-5.957 9.106,-12.5 11.54,-19.629c2.434,-7.129 3.651,-14.404 3.651,-21.826c-0,-7.226 -1.315,-14.062 -3.946,-20.508c-2.631,-6.445 -6.675,-11.767 -12.133,-15.967c-5.458,-4.199 -12.036,-7.226 -19.734,-9.082c-7.698,-1.855 -18.954,-2.783 -33.767,-2.783l-70.166,0l-3.987,110.156Zm-7.16,176.954l66.509,-0c13.479,-0 23.979,-0.539 31.498,-1.616c7.52,-1.078 14.699,-2.986 21.536,-5.727c6.837,-2.74 12.209,-5.677 16.116,-8.81c3.906,-3.132 7.373,-7.146 10.4,-12.041c3.027,-4.895 5.42,-10.426 7.178,-16.594c1.757,-6.168 2.636,-12.579 2.636,-19.235c0,-9.006 -1.563,-16.935 -4.689,-23.788c-3.127,-6.853 -7.767,-12.775 -13.921,-17.768c-6.154,-4.993 -13.333,-8.615 -21.538,-10.867c-8.204,-2.253 -20.708,-3.379 -37.511,-3.379l-73.851,0l-4.363,119.825Z" style="fill:#242424;fill-rule:nonzero;"/><path d="M2701.37,226.143c22.461,0 43.994,3.369 64.6,10.107c20.605,6.739 38.086,16.7 52.441,29.883c14.356,13.184 25.147,29.297 32.373,48.34c7.227,19.043 10.84,39.111 10.84,60.205c0,22.266 -3.809,43.75 -11.426,64.453c-7.617,20.703 -18.652,38.623 -33.105,53.76c-14.453,15.137 -32.471,26.465 -54.053,33.984c-21.582,7.52 -44.58,11.28 -68.994,11.28c-22.656,-0 -44.19,-3.369 -64.6,-10.108c-20.41,-6.738 -37.841,-16.845 -52.295,-30.322c-14.453,-13.476 -25.439,-29.883 -32.959,-49.219c-7.519,-19.336 -11.279,-39.55 -11.279,-60.644c0,-21.485 3.418,-41.992 10.254,-61.524c6.836,-19.531 17.529,-36.914 32.08,-52.148c14.551,-15.234 33.154,-27.051 55.811,-35.449c22.656,-8.399 46.093,-12.598 70.312,-12.598Zm-0.014,60.352c-16.931,-0 -32.061,4.15 -45.391,12.451c-13.33,8.301 -23.256,20.654 -29.776,37.06c-6.52,16.407 -9.78,34.278 -9.78,53.614c0,16.992 2.676,32.129 8.027,45.41c5.351,13.281 14.108,24.023 26.271,32.226c12.163,8.203 26.614,12.305 43.353,12.305c17.123,0 32.155,-4.248 45.096,-12.744c12.941,-8.496 22.672,-20.996 29.192,-37.5c6.52,-16.504 9.78,-34.717 9.78,-54.639c-0,-16.211 -2.53,-30.957 -7.59,-44.238c-5.06,-13.281 -13.574,-23.926 -25.543,-31.934c-11.969,-8.007 -26.515,-12.011 -43.639,-12.011Z" style="fill:#242424;fill-rule:nonzero;"/><path d="M2875.69,531.124c41.058,-49.698 82.742,-101.404 125.051,-155.118l-26.77,-40.508c-8.709,-13.205 -20.288,-30.108 -34.735,-50.711l-36.007,-51.613c21.463,0.391 38.632,0.586 51.507,0.586c16.977,0 32.099,-0.195 45.365,-0.586c9.06,13.935 19.429,29.2 31.105,45.795l22.046,32.405l62.915,-78.2c13.876,0.391 28.727,0.586 44.554,0.586c14.853,0 30.194,-0.195 46.023,-0.586l-48.944,60.59c-11.087,13.989 -31.795,40.391 -62.123,79.207l45.905,68.902l61.94,89.251c-16.825,-0.391 -32.378,-0.586 -46.66,-0.586c-17.218,-0 -33.946,0.195 -50.185,0.586c-12.164,-19.709 -24.28,-37.828 -36.346,-54.358c-12.067,-16.529 -20.992,-29.404 -26.775,-38.623c-7.843,10.33 -18.316,23.442 -31.419,39.337c-13.102,15.896 -27.208,33.777 -42.317,53.644c-16.422,-0.391 -31.279,-0.586 -44.573,-0.586c-14.856,-0 -31.375,0.195 -49.557,0.586Z" style="fill:#242424;fill-rule:nonzero;"/><path d="M289.341,592.648l-0,-211.879" style="fill:none;stroke:#f8f8f8;stroke-width:2.08px;"/></svg>